<svg width="79" height="79" viewBox="0 0 79 79" fill="none" xmlns="http://www.w3.org/2000/svg">
<path d="M77.9336 39.403C77.9336 40.6733 77.8714 41.9406 77.747 43.2048C77.6226 44.4691 77.4365 45.7241 77.1888 46.9699C76.9412 48.2159 76.6331 49.4467 76.2646 50.6623C75.8961 51.878 75.469 53.0726 74.9832 54.2461C74.4974 55.4198 73.9553 56.5668 73.3569 57.6871C72.7585 58.8075 72.1066 59.8957 71.4013 60.9519C70.6961 62.0082 69.9408 63.0273 69.1355 64.0093C68.3302 64.9912 67.4787 65.9313 66.581 66.8295C65.6834 67.7278 64.744 68.5799 63.7627 69.3857C62.7814 70.1916 61.763 70.9474 60.7075 71.6531C59.652 72.3589 58.5645 73.0112 57.4449 73.6101C56.3253 74.2089 55.1792 74.7513 54.0063 75.2374C52.8335 75.7236 51.6398 76.1511 50.425 76.5199C49.2102 76.8886 47.9803 77.1969 46.7352 77.4447C45.4902 77.6926 44.236 77.8788 42.9728 78.0033C41.7094 78.1278 40.443 78.1901 39.1736 78.1901C37.9041 78.1901 36.6378 78.1278 35.3745 78.0033C34.1111 77.8788 32.8569 77.6926 31.6118 77.4447C30.3668 77.1969 29.1369 76.8886 27.9221 76.5198C26.7073 76.1511 25.5135 75.7236 24.3407 75.2374C23.1679 74.7513 22.0217 74.2089 20.9022 73.6101C19.7827 73.0112 18.6951 72.3589 17.6396 71.6531C16.5841 70.9474 15.5658 70.1916 14.5845 69.3857C13.6032 68.5799 12.6637 67.7278 11.7661 66.8295C10.8685 65.9313 10.017 64.9912 9.21166 64.0093C8.40635 63.0273 7.65105 62.0082 6.94576 60.9519C6.24051 59.8957 5.58866 58.8074 4.99027 57.6871C4.39189 56.5668 3.84975 55.4198 3.36395 54.2461C2.87818 53.0726 2.45106 51.878 2.08255 50.6623C1.71404 49.4467 1.40596 48.2159 1.1583 46.9699C0.910636 45.7241 0.724599 44.4691 0.600202 43.2048C0.475783 41.9406 0.413544 40.6733 0.413544 39.403C0.413544 38.1327 0.475783 36.8655 0.600202 35.6012C0.724599 34.3369 0.910636 33.0819 1.1583 31.8359C1.40596 30.5901 1.71401 29.3594 2.08252 28.1437C2.45102 26.9281 2.87814 25.7334 3.36391 24.5598C3.84971 23.3862 4.39185 22.2392 4.99027 21.1189C5.58866 19.9986 6.24051 18.9102 6.94576 17.854C7.65105 16.7978 8.40635 15.7787 9.21166 14.7967C10.017 13.8148 10.8685 12.8746 11.7661 11.9764C12.6637 11.0781 13.6032 10.2261 14.5844 9.42012C15.5658 8.61424 16.5841 7.85842 17.6396 7.15265C18.6951 6.44694 19.7826 5.79471 20.9022 5.19593C22.0217 4.59715 23.1679 4.05465 24.3407 3.56847C25.5135 3.08236 26.7073 2.65491 27.9221 2.28618C29.1369 1.91739 30.3668 1.60901 31.6118 1.36122C32.8569 1.11342 34.1111 0.927288 35.3744 0.802804C36.6378 0.678321 37.9041 0.616049 39.1736 0.615982C40.443 0.616049 41.7094 0.678321 42.9727 0.802804C44.236 0.927288 45.4902 1.11342 46.7352 1.36122C47.9803 1.60901 49.2102 1.91739 50.425 2.28618C51.6398 2.65491 52.8335 3.08236 54.0063 3.56847C55.1792 4.05465 56.3253 4.59715 57.4449 5.19593C58.5645 5.79471 59.652 6.44694 60.7075 7.15265C61.763 7.85842 62.7814 8.61424 63.7627 9.42012C64.744 10.2261 65.6834 11.0781 66.581 11.9764C67.4787 12.8746 68.3302 13.8148 69.1355 14.7967C69.9409 15.7787 70.6961 16.7978 71.4014 17.854C72.1066 18.9102 72.7585 19.9986 73.3569 21.1189C73.9553 22.2392 74.4974 23.3862 74.9832 24.5598C75.469 25.7334 75.8961 26.9281 76.2646 28.1437C76.6331 29.3594 76.9412 30.5901 77.1888 31.8359C77.4365 33.0819 77.6226 34.3369 77.747 35.6012C77.8714 36.8655 77.9336 38.1327 77.9336 39.403Z" fill="#F9F6F1"/>
<path d="M39.1737 78.7495C38.5923 78.7495 38.0557 78.7495 37.452 78.7495V77.6307C40.4009 77.7623 43.3263 77.5571 46.2281 77.0154L46.4293 78.1342C44.0295 78.5612 41.611 78.7664 39.1737 78.7495ZM28.5194 77.2839C25.5935 76.4632 22.8023 75.3146 20.1458 73.8382L20.6825 72.8537C23.264 74.2914 25.977 75.4101 28.8213 76.2099L28.5194 77.2839ZM55.1159 75.382L54.6688 74.3528C57.3639 73.1528 59.8867 71.6612 62.2374 69.8778L62.9082 70.7728C60.4875 72.6083 57.8901 74.1448 55.1159 75.382ZM12.7784 68.5688C10.5317 66.5259 8.54545 64.2548 6.81963 61.7556L7.73637 61.1179C9.4162 63.5487 11.3503 65.7564 13.5386 67.7409L12.7784 68.5688ZM69.4483 64.5078L68.5875 63.7917C70.4721 61.5204 72.0708 59.0629 73.3836 56.4192L74.3898 56.9226C73.0319 59.6398 71.3848 62.1682 69.4483 64.5078ZM2.56016 53.7678C1.45041 50.9379 0.682768 48.018 0.257146 45.008L1.37512 44.8513C1.7888 47.7728 2.53413 50.607 3.61106 53.3538L2.56016 53.7678ZM77.4642 48.3978L76.3462 48.1405C77.0204 45.2671 77.3558 42.3546 77.3524 39.4031H78.4704C78.4782 42.4398 78.1428 45.4381 77.4642 48.3978ZM77.3189 37.2886C77.1605 34.3407 76.6648 31.4505 75.832 28.6183L76.95 28.3051C77.8057 31.2292 78.3162 34.2126 78.4816 37.255L77.3189 37.2886ZM1.11797 36.058L0 35.9573C0.269118 32.9306 0.876562 29.9733 1.8223 27.0857L2.88438 27.4325C1.96255 30.2394 1.37375 33.1146 1.11797 36.058ZM72.3998 20.5186C70.9373 17.9525 69.2044 15.5845 67.2012 13.4145L68.0173 12.6538C70.081 14.8844 71.866 17.3195 73.3724 19.9592L72.3998 20.5186ZM6.58486 19.3999L5.63458 18.8069C7.22662 16.2184 9.08989 13.8429 11.2244 11.6805L12.0182 12.4748C9.93581 14.5903 8.12467 16.9174 6.58483 19.4558L6.58486 19.3999ZM60.527 7.64179C58.0754 5.9879 55.4668 4.63795 52.7012 3.59192L53.1036 2.5403C55.9412 3.6262 58.6206 5.01713 61.1418 6.71321L60.527 7.64179ZM18.8714 6.95937L18.2676 6.01959C20.8382 4.39631 23.5623 3.09483 26.44 2.11517L26.7978 3.16679C24.006 4.14119 21.3639 5.42403 18.8714 7.01529V6.95937ZM44.1822 1.44394C42.5196 1.22879 40.8501 1.12063 39.1737 1.11953C37.9105 1.11059 36.6509 1.17396 35.3949 1.3097L35.2831 0.190951C36.5764 0.0554815 37.8733 -0.00788768 39.1737 0.000782622C40.8989 3.306e-05 42.6169 0.111883 44.3275 0.336394L44.1822 1.44394Z" fill="#2A4089"/>
<path d="M72.5573 39.4315C72.5573 40.523 72.5038 41.6119 72.3969 42.6982C72.2898 43.7845 72.1299 44.8628 71.9169 45.9333C71.704 47.0039 71.4391 48.0615 71.1222 49.106C70.8053 50.1506 70.4381 51.177 70.0204 52.1853C69.6027 53.1938 69.1365 54.1793 68.622 55.142C68.1075 56.1047 67.547 57.0397 66.9405 57.9473C66.3342 58.8549 65.6847 59.7306 64.9923 60.5744C64.2998 61.4182 63.5677 62.2259 62.7958 62.9977C62.024 63.7696 61.2162 64.5017 60.3725 65.1942C59.5287 65.8866 58.653 66.536 57.7455 67.1424C56.8379 67.7488 55.9028 68.3093 54.9402 68.8239C53.9775 69.3385 52.9919 69.8046 51.9835 70.2223C50.975 70.64 49.9485 71.0073 48.904 71.3241C47.8595 71.641 46.802 71.9059 45.7314 72.1188C44.6609 72.3318 43.5825 72.4918 42.4962 72.5988C41.41 72.7058 40.3211 72.7593 39.2295 72.7593C38.138 72.7593 37.0491 72.7058 35.9629 72.5988C34.8765 72.4918 33.7981 72.3318 32.7276 72.1188C31.657 71.9059 30.5995 71.6411 29.555 71.3242C28.5105 71.0074 27.484 70.64 26.4755 70.2223C25.4671 69.8046 24.4816 69.3384 23.5189 68.8238C22.5562 68.3093 21.6212 67.7488 20.7136 67.1424C19.806 66.536 18.9303 65.8866 18.0866 65.1942C17.2428 64.5017 16.435 63.7696 15.6632 62.9977C14.8914 62.2259 14.1592 61.4182 13.4668 60.5744C12.7743 59.7306 12.1248 58.8549 11.5184 57.9473C10.912 57.0397 10.3515 56.1047 9.837 55.142C9.32245 54.1793 8.8563 53.1938 8.43857 52.1853C8.0209 51.177 7.65363 50.1506 7.33679 49.106C7.01991 48.0615 6.75499 47.0039 6.54205 45.9333C6.32913 44.8628 6.16921 43.7845 6.06224 42.6982C5.95527 41.6119 5.90177 40.523 5.90173 39.4315C5.90177 38.34 5.95524 37.2511 6.06221 36.1649C6.16921 35.0785 6.32916 34.0001 6.54208 32.9296C6.75502 31.8591 7.01991 30.8015 7.33679 29.757C7.65363 28.7124 8.0209 27.6859 8.4386 26.6774C8.85633 25.669 9.32247 24.6835 9.83703 23.7208C10.3515 22.7582 10.912 21.8231 11.5184 20.9155C12.1248 20.0079 12.7743 19.1323 13.4668 18.2886C14.1592 17.4448 14.8914 16.637 15.6632 15.8652C16.435 15.0934 17.2428 14.3613 18.0866 13.6689C18.9303 12.9764 19.806 12.327 20.7136 11.7205C21.6212 11.1141 22.5562 10.5536 23.5189 10.0391C24.4815 9.52456 25.467 9.05842 26.4755 8.64065C27.4839 8.22296 28.5104 7.85568 29.555 7.53884C30.5995 7.22199 31.657 6.95708 32.7276 6.7441C33.7981 6.53126 34.8765 6.37129 35.9628 6.26422C37.0491 6.15728 38.138 6.10378 39.2295 6.10371C40.3211 6.10378 41.41 6.15728 42.4963 6.26422C43.5825 6.37129 44.6609 6.53126 45.7314 6.7441C46.802 6.95708 47.8595 7.22199 48.904 7.53884C49.9485 7.85568 50.975 8.22296 51.9835 8.64065C52.9919 9.05842 53.9775 9.52456 54.9401 10.0391C55.9028 10.5536 56.8378 11.1141 57.7454 11.7205C58.653 12.327 59.5286 12.9764 60.3724 13.6688C61.2162 14.3613 62.024 15.0934 62.7958 15.8652C63.5677 16.637 64.2998 17.4448 64.9922 18.2886C65.6847 19.1323 66.3341 20.0079 66.9405 20.9155C67.5469 21.8231 68.1074 22.7582 68.622 23.7208C69.1365 24.6835 69.6026 25.669 70.0203 26.6774C70.4381 27.6859 70.8053 28.7124 71.1222 29.757C71.4391 30.8015 71.704 31.8591 71.9169 32.9296C72.1299 34.0001 72.2898 35.0785 72.3969 36.1649C72.5038 37.2511 72.5573 38.34 72.5573 39.4315Z" fill="#F4976E"/>
<path d="M52.2261 56.1581C52.3648 55.8364 52.4695 55.5041 52.5403 55.161C52.5861 54.8023 52.5525 54.4513 52.4393 54.1078C52.0672 53.3236 51.5137 52.6999 50.7788 52.2368C49.9672 51.6778 49.107 51.2073 48.1983 50.8252C47.9136 50.7297 47.6583 50.583 47.4326 50.3852C47.2068 50.1874 47.028 49.9537 46.8962 49.6841C46.7644 49.4146 46.6898 49.1301 46.6724 48.8307C46.655 48.5312 46.6962 48.24 46.7959 47.957C46.9081 47.6881 47.0203 47.4752 46.7286 47.3408C44.8998 46.4781 43.9462 44.0581 43.3628 42.2879C42.7794 40.5177 42.1398 38.109 43.0262 36.4172C43.5103 36.3547 43.9635 36.2012 44.3856 35.9566C44.8078 35.712 45.1661 35.3952 45.4604 35.0064C45.7548 34.6176 45.9624 34.187 46.0831 33.7147C46.2038 33.2424 46.2283 32.7652 46.1564 32.283C46.1021 31.8439 45.9703 31.4295 45.7609 31.0397C45.5516 30.6499 45.2789 30.311 44.9427 30.023C44.6065 29.7349 44.2296 29.5171 43.8119 29.3697C43.3943 29.2224 42.9641 29.1552 42.5213 29.1683C42.454 28.6194 42.8691 28.2272 43.2731 27.8239C43.712 27.4048 44.086 26.9342 44.395 26.4122C45.1253 25.0956 45.3273 23.7026 45.0009 22.2332C44.4399 19.3314 41.7921 17.2812 39.7389 15.3878C39.646 15.3003 39.5357 15.2565 39.408 15.2565C39.2802 15.2565 39.1699 15.3003 39.077 15.3878C37.0687 17.3372 34.7912 19.2643 34.0395 22.11C33.6798 23.5737 33.8481 24.9742 34.5444 26.3114C34.8364 26.8696 35.2104 27.3663 35.6663 27.8015C36.1263 28.2273 36.6649 28.6306 36.5975 29.258C36.1715 29.2544 35.7582 29.3252 35.3577 29.4704C34.9572 29.6156 34.5947 29.826 34.2703 30.1018C33.9457 30.3775 33.6796 30.7011 33.4719 31.0726C33.2643 31.4441 33.1281 31.8401 33.0634 32.2606C32.9767 32.757 32.9923 33.2501 33.11 33.7401C33.2276 34.2301 33.4378 34.6765 33.7405 35.0796C34.0433 35.4827 34.4137 35.8092 34.8518 36.0592C35.2898 36.3091 35.7595 36.4621 36.2609 36.518C37.1921 38.1985 36.5639 40.6857 36.059 42.3887C35.5541 44.0917 34.578 46.6238 32.7941 47.52C32.5024 47.6545 32.6483 47.9682 32.7381 48.1474C32.8463 48.4045 32.9012 48.6724 32.9029 48.9513C32.9046 49.2302 32.8529 49.4988 32.7477 49.7572C32.6426 50.0155 32.4919 50.244 32.2959 50.4426C32.0998 50.6411 31.8732 50.7948 31.6161 50.9036C30.6569 51.3702 29.7369 51.9042 28.8561 52.5057C28.2016 52.9545 27.6892 53.5297 27.3191 54.2311C27.1695 54.5901 27.1097 54.9636 27.1396 55.3514C27.1929 55.7443 27.3088 56.1177 27.4874 56.4718C26.7139 56.4081 26.0295 56.6247 25.4341 57.1216C25.006 57.5467 24.7298 58.0542 24.6056 58.644C24.4813 59.234 24.5294 59.8095 24.7497 60.3707C25.221 61.8272 27.678 61.9841 28.9009 62.1073C36.1902 62.416 43.4754 62.3376 50.7564 61.872C52.0354 61.7376 54.4364 61.5471 54.9861 60.0906C55.7266 58.1188 54.2568 55.822 52.2261 56.1581Z" fill="#F9F6F1"/>
</svg>
