<svg width="643" height="643" viewBox="0 0 643 643" fill="none" xmlns="http://www.w3.org/2000/svg">
<path d="M0.622437 0.622406H642.378V642.377H0.622437V0.622406Z" fill="#F9F6F1"/>
<path d="M642.377 643H632.419V641.755H642.377V643ZM622.46 643H612.501V641.755H622.46V643ZM602.542 643H592.583V641.755H602.542V643ZM582.624 643H572.665V641.755H582.624V643ZM562.706 643H552.747V641.755H562.706V643ZM542.788 643H532.829V641.755H542.788V643ZM522.87 643H512.911V641.755H522.87V643ZM502.952 643H492.993V641.755H502.952V643ZM483.034 643H473.075V641.755H483.034V643ZM463.116 643H453.157V641.755H463.116V643ZM443.198 643H433.239V641.755H443.198V643ZM423.28 643H413.322V641.755H423.28V643ZM403.363 643H393.404V641.755H403.363V643ZM383.445 643H373.486V641.755H383.445V643ZM363.527 643H353.568V641.755H363.527V643ZM343.609 643H333.65V641.755H343.609V643ZM323.691 643H313.732V641.755H323.691V643ZM303.773 643H293.814V641.755H303.773V643ZM283.855 643H273.896V641.755H283.855V643ZM263.937 643H253.978V641.755H263.937V643ZM244.019 643H234.06V641.755H244.019V643ZM224.101 643H214.142V641.755H224.101V643ZM204.183 643H194.225V641.755H204.183V643ZM184.266 643H174.307V641.755H184.266V643ZM164.348 643H154.389V641.755H164.348V643ZM144.43 643H134.471V641.755H144.43V643ZM124.512 643H114.553V641.755H124.512V643ZM104.594 643H94.6349V641.755H104.594V643ZM84.676 643H74.717V641.755H84.676V643ZM64.7581 643H54.7991V641.755H64.7581V643ZM44.8402 643H34.8812V641.755H44.8402V643ZM24.9223 643H14.9633V641.755H24.9223V643ZM5.00434 643H0.0248647V636.776H1.26973V641.755H5.00434V643ZM643 634.821H641.755V624.862H643V634.821ZM1.24487 626.842H0V616.883H1.24487V626.842ZM643 614.903H641.755V604.944H643V614.903ZM1.24487 606.924H0V596.965H1.24487V606.924ZM643 594.985H641.755V585.026H643V594.985ZM1.24487 587.006H0V577.047H1.24487V587.006ZM643 575.067H641.755V565.108H643V575.067ZM1.24487 567.088H0V557.129H1.24487V567.088ZM643 555.149H641.755V545.191H643V555.149ZM1.24487 547.17H0V537.211H1.24487V547.17ZM643 535.232H641.755V525.273H643V535.232ZM1.24487 527.252H0V517.293H1.24487V527.252ZM643 515.314H641.755V505.355H643V515.314ZM1.24487 507.334H0V497.375H1.24487V507.334ZM643 495.396H641.755V485.437H643V495.396ZM1.24487 487.416H0V477.457H1.24487V487.416ZM643 475.478H641.755V465.519H643V475.478ZM1.24487 467.498H0V457.539H1.24487V467.498ZM643 455.56H641.755V445.601H643V455.56ZM1.24487 447.58H0V437.621H1.24487V447.58ZM643 435.642H641.755V425.683H643V435.642ZM1.24487 427.662H0V417.703H1.24487V427.662ZM643 415.724H641.755V405.765H643V415.724ZM1.24487 407.745H0V397.786H1.24487V407.745ZM643 395.806H641.755V385.847H643V395.806ZM1.24487 387.827H0V377.868H1.24487V387.827ZM643 375.888H641.755V365.929H643V375.888ZM1.24487 367.909H0V357.95H1.24487V367.909ZM643 355.97H641.755V346.011H643V355.97ZM1.24487 347.991H0V338.032H1.24487V347.991ZM643 336.052H641.755V326.093H643V336.052ZM1.24487 328.073H0V318.114H1.24487V328.073ZM643 316.135H641.755V306.176H643V316.135ZM1.24487 308.155H0V298.196H1.24487V308.155ZM643 296.217H641.755V286.258H643V296.217ZM1.24487 288.237H0V278.278H1.24487V288.237ZM643 276.299H641.755V266.34H643V276.299ZM1.24487 268.319H0V258.36H1.24487V268.319ZM643 256.381H641.755V246.422H643V256.381ZM1.24487 248.401H0V238.442H1.24487V248.401ZM643 236.463H641.755V226.504H643V236.463ZM1.24487 228.483H0V218.524H1.24487V228.483ZM643 216.545H641.755V206.586H643V216.545ZM1.24487 208.565H0V198.606H1.24487V208.565ZM643 196.627H641.755V186.668H643V196.627ZM1.24487 188.648H0V178.689H1.24487V188.648ZM643 176.709H641.755V166.75H643V176.709ZM1.24487 168.73H0V158.771H1.24487V168.73ZM643 156.791H641.755V146.832H643V156.791ZM1.24487 148.812H0V138.853H1.24487V148.812ZM643 136.873H641.755V126.914H643V136.873ZM1.24487 128.894H0V118.935H1.24487V128.894ZM643 116.956H641.755V106.997H643V116.956ZM1.24487 108.976H0V99.0169H1.24487V108.976ZM643 97.0376H641.755V87.0786H643V97.0376ZM1.24487 89.058H0V79.099H1.24487V89.058ZM643 77.1197H641.755V67.1607H643V77.1197ZM1.24487 69.1401H0V59.1811H1.24487V69.1401ZM643 57.2018H641.755V47.2428H643V57.2018ZM1.24487 49.2221H0V39.2632H1.24487V49.2221ZM643 37.2839H641.755V27.3249H643V37.2839ZM1.24487 29.3042H0V19.3453H1.24487V29.3042ZM643 17.3659H641.755V7.40699H643V17.3659ZM1.24487 9.38633H0V0H1.82996V1.24487H1.24487V9.38633ZM639.203 1.24487H629.244V0H639.203V1.24487ZM619.285 1.24487H609.326V0H619.285V1.24487ZM599.367 1.24487H589.408V0H599.367V1.24487ZM579.449 1.24487H569.49V0H579.449V1.24487ZM559.531 1.24487H549.572V0H559.531V1.24487ZM539.614 1.24487H529.655V0H539.614V1.24487ZM519.696 1.24487H509.737V0H519.696V1.24487ZM499.778 1.24487H489.819V0H499.778V1.24487ZM479.86 1.24487H469.901V0H479.86V1.24487ZM459.942 1.24487H449.983V0H459.942V1.24487ZM440.024 1.24487H430.065V0H440.024V1.24487ZM420.106 1.24487H410.147V0H420.106V1.24487ZM400.188 1.24487H390.229V0H400.188V1.24487ZM380.27 1.24487H370.311V0H380.27V1.24487ZM360.352 1.24487H350.393V0H360.352V1.24487ZM340.434 1.24487H330.475V0H340.434V1.24487ZM320.517 1.24487H310.558V0H320.517V1.24487ZM300.599 1.24487H290.64V0H300.599V1.24487ZM280.681 1.24487H270.722V0H280.681V1.24487ZM260.763 1.24487H250.804V0H260.763V1.24487ZM240.845 1.24487H230.886V0H240.845V1.24487ZM220.927 1.24487H210.968V0H220.927V1.24487ZM201.009 1.24487H191.05V0H201.009V1.24487ZM181.091 1.24487H171.132V0H181.091V1.24487ZM161.173 1.24487H151.214V0H161.173V1.24487ZM141.255 1.24487H131.296V0H141.255V1.24487ZM121.337 1.24487H111.378V0H121.337V1.24487ZM101.419 1.24487H91.4605V0H101.419V1.24487ZM81.5016 1.24487H71.5426V0H81.5016V1.24487ZM61.5837 1.24487H51.6247V0H61.5837V1.24487ZM41.6658 1.24487H31.7068V0H41.6658V1.24487ZM21.7479 1.24487H11.7889V0H21.7479V1.24487Z" fill="#2A4089"/>
<path class="place" d="M14.0433 14.0434H628.957V628.957H14.0433V14.0434Z" fill="#EFB7A0"/>
<path class="place" d="M24.1402 26.613H618.138V613.739H24.1402V26.613Z" fill="#F4976E"/>
<path class="place" d="M544.016 26.613H618.138V100.751H544.016V26.613Z" fill="#2A4089"/>
<path class="place" d="M395.486 26.613H469.608V100.751H395.486V26.613Z" fill="#2A4089"/>
<path class="place" d="M246.942 26.613H321.065V100.751H246.942V26.613Z" fill="#2A4089"/>
<path class="place" d="M98.4117 26.613H172.534V100.751H98.4117V26.613Z" fill="#2A4089"/>
<path class="place" d="M469.745 99.8917H543.867V174.03H469.745V99.8917Z" fill="#2A4089"/>
<path class="place" d="M321.214 99.8917H395.336V174.03H321.214V99.8917Z" fill="#2A4089"/>
<path class="place" d="M172.683 99.8917H246.805V174.03H172.683V99.8917Z" fill="#2A4089"/>
<path class="place" d="M24.1402 99.8917H98.2624V174.03H24.1402V99.8917Z" fill="#2A4089"/>
<path class="place" d="M544.016 173.183H618.138V247.321H544.016V173.183Z" fill="#2A4089"/>
<path class="place" d="M395.486 173.183H469.608V247.321H395.486V173.183Z" fill="#2A4089"/>
<path class="place" d="M246.942 173.183H321.065V247.321H246.942V173.183Z" fill="#2A4089"/>
<path class="place" d="M98.4117 173.183H172.534V247.321H98.4117V173.183Z" fill="#2A4089"/>
<path class="place" d="M469.745 246.461H543.867V320.599H469.745V246.461Z" fill="#2A4089"/>
<path class="place" d="M321.214 246.461H395.336V320.599H321.214V246.461Z" fill="#2A4089"/>
<path class="place" d="M172.683 246.461H246.805V320.599H172.683V246.461Z" fill="#2A4089"/>
<path class="place" d="M24.1402 246.461H98.2624V320.599H24.1402V246.461Z" fill="#2A4089"/>
<path class="place" d="M544.016 319.753H618.138V393.89H544.016V319.753Z" fill="#2A4089"/>
<path class="place" d="M395.486 319.753H469.608V393.89H395.486V319.753Z" fill="#2A4089"/>
<path class="place" d="M246.942 319.753H321.065V393.89H246.942V319.753Z" fill="#2A4089"/>
<path class="place" d="M98.4117 319.753H172.534V393.89H98.4117V319.753Z" fill="#2A4089"/>
<path class="place" d="M469.745 393.031H543.867V467.169H469.745V393.031Z" fill="#2A4089"/>
<path class="place" d="M321.214 393.031H395.336V467.169H321.214V393.031Z" fill="#2A4089"/>
<path class="place" d="M172.683 393.031H246.805V467.169H172.683V393.031Z" fill="#2A4089"/>
<path class="place" d="M24.1402 393.031H98.2624V467.169H24.1402V393.031Z" fill="#2A4089"/>
<path class="place" d="M544.016 466.322H618.138V540.46H544.016V466.322Z" fill="#2A4089"/>
<path class="place" d="M395.486 466.322H469.608V540.46H395.486V466.322Z" fill="#2A4089"/>
<path class="place" d="M246.942 466.322H321.065V540.46H246.942V466.322Z" fill="#2A4089"/>
<path class="place" d="M98.4117 466.322H172.534V540.46H98.4117V466.322Z" fill="#2A4089"/>
<path class="place" d="M469.745 539.601H543.867V613.739H469.745V539.601Z" fill="#2A4089"/>
<path class="place" d="M321.214 539.601H395.336V613.739H321.214V539.601Z" fill="#2A4089"/>
<path class="place" d="M172.683 539.601H246.805V613.739H172.683V539.601Z" fill="#2A4089"/>
<path class="place" d="M24.1402 539.601H98.2624V613.739H24.1402V539.601Z" fill="#2A4089"/>
</svg>
