<svg width="79" height="80" viewBox="0 0 79 80" fill="none" xmlns="http://www.w3.org/2000/svg">
<path d="M77.9627 39.8727C77.9627 41.1433 77.9005 42.4108 77.7761 43.6752C77.6516 44.9396 77.4655 46.1948 77.2179 47.441C76.9702 48.6872 76.6622 49.9181 76.2937 51.1338C75.9252 52.3497 75.498 53.5445 75.0122 54.7183C74.5264 55.8921 73.9843 57.0394 73.3859 58.1599C72.7875 59.2804 72.1357 60.3689 71.4304 61.4253C70.7252 62.4817 69.9699 63.501 69.1645 64.4832C68.3592 65.4653 67.5078 66.4055 66.6101 67.3039C65.7125 68.2024 64.773 69.0546 63.7917 69.8605C62.8104 70.6666 61.792 71.4226 60.7365 72.1284C59.6811 72.8344 58.5936 73.4867 57.474 74.0856C56.3545 74.6846 55.2083 75.2272 54.0355 75.7134C52.8627 76.1996 51.6689 76.6271 50.4541 76.996C49.2393 77.3648 48.0094 77.6731 46.7644 77.921C45.5193 78.1689 44.2651 78.3551 43.0018 78.4796C41.7385 78.6041 40.4721 78.6664 39.2027 78.6664C37.9332 78.6664 36.6669 78.6041 35.4035 78.4796C34.1402 78.3551 32.886 78.1688 31.641 77.9209C30.3959 77.6731 29.166 77.3647 27.9512 76.996C26.7364 76.6271 25.5426 76.1996 24.3698 75.7134C23.197 75.2272 22.0508 74.6846 20.9313 74.0857C19.8118 73.4868 18.7242 72.8344 17.6687 72.1284C16.6132 71.4226 15.5948 70.6667 14.6136 69.8606C13.6323 69.0547 12.6928 68.2024 11.7952 67.304C10.8975 66.4056 10.0461 65.4654 9.24075 64.4832C8.43542 63.5011 7.68011 62.4818 6.97485 61.4253C6.2696 60.3689 5.61776 59.2804 5.01935 58.1599C4.42094 57.0394 3.87883 55.8923 3.39305 54.7184C2.90725 53.5446 2.48013 52.3498 2.11163 51.1339C1.74313 49.9181 1.43504 48.6872 1.18737 47.441C0.939725 46.1948 0.75367 44.9396 0.629251 43.6752C0.504832 42.4108 0.442627 41.1433 0.442627 39.8727C0.442627 38.6022 0.504832 37.3347 0.629251 36.0702C0.75367 34.8057 0.939708 33.5505 1.18735 32.3043C1.43502 31.0582 1.74312 29.8272 2.11163 28.6114C2.48013 27.3956 2.90725 26.2008 3.39305 25.027C3.87883 23.8532 4.42094 22.706 5.01935 21.5854C5.61776 20.4649 6.2696 19.3765 6.97485 18.32C7.68011 17.2636 8.43542 16.2444 9.24075 15.2623C10.0461 14.2801 10.8975 13.3398 11.7952 12.4414C12.6928 11.5429 13.6323 10.6907 14.6135 9.88474C15.5948 9.07872 16.6132 8.32277 17.6687 7.61687C18.7242 6.91104 19.8118 6.25868 20.9313 5.65968C22.0508 5.0608 23.197 4.5182 24.3698 4.03194C25.5426 3.54575 26.7364 3.11822 27.9512 2.74943C29.166 2.38057 30.3959 2.07222 31.6409 1.82438C32.886 1.57661 34.1402 1.39044 35.4035 1.26586C36.6668 1.14136 37.9332 1.07908 39.2027 1.07901C40.4721 1.07908 41.7385 1.14136 43.0018 1.26586C44.2651 1.39044 45.5193 1.57661 46.7644 1.82438C48.0094 2.07222 49.2393 2.38057 50.4541 2.74943C51.6689 3.11822 52.8626 3.54575 54.0354 4.03194C55.2083 4.5182 56.3545 5.0608 57.474 5.65968C58.5936 6.25868 59.681 6.91104 60.7365 7.61687C61.792 8.32277 62.8104 9.07872 63.7917 9.88474C64.773 10.6907 65.7125 11.5429 66.6101 12.4414C67.5078 13.3398 68.3592 14.2801 69.1645 15.2622C69.9699 16.2444 70.7252 17.2636 71.4304 18.32C72.1357 19.3764 72.7875 20.4649 73.3859 21.5854C73.9843 22.7059 74.5264 23.8531 75.0122 25.0269C75.498 26.2008 75.9252 27.3956 76.2937 28.6114C76.6622 29.8272 76.9702 31.0582 77.2179 32.3043C77.4655 33.5505 77.6516 34.8057 77.7761 36.0702C77.9005 37.3347 77.9627 38.6022 77.9627 39.8727Z" fill="#F9F6F1"/>
<path d="M39.2026 79.226C38.6213 79.226 38.0847 79.226 37.481 79.226V78.1071C40.4299 78.2387 43.3552 78.0336 46.257 77.4917L46.4583 78.6106C44.0585 79.0377 41.64 79.2429 39.2026 79.226ZM28.5484 77.7602C25.6225 76.9392 22.8313 75.7904 20.1748 74.3138L20.7114 73.3292C23.2929 74.7674 26.0058 75.8863 28.8502 76.686L28.5484 77.7602ZM55.1449 75.8468L54.6977 74.8286C57.3904 73.6243 59.9133 72.1324 62.2664 70.3528L62.9372 71.2479C60.5186 73.0844 57.9212 74.6173 55.1449 75.8468ZM12.8073 69.0324C10.558 66.9955 8.57179 64.7278 6.84856 62.2292L7.76531 61.5914C9.44177 64.0185 11.3721 66.2227 13.5564 68.2043L12.8073 69.0324ZM69.4773 64.9818L68.6165 64.2657C70.5011 61.994 72.0998 59.5361 73.4126 56.8918L74.4188 57.3954C73.0649 60.1155 71.4177 62.6443 69.4773 64.9818ZM2.58909 54.24C1.47936 51.4096 0.711699 48.4892 0.286076 45.4787L1.40405 45.322C1.81776 48.244 2.56308 51.0786 3.63999 53.8259L2.58909 54.24ZM77.4931 48.8691L76.3752 48.6118C77.0484 45.7377 77.3838 42.8247 77.3813 39.8728H78.4993C78.5072 42.91 78.1718 45.9088 77.4931 48.8691ZM77.3478 37.758C77.1903 34.8093 76.6947 31.9187 75.8609 29.0862L76.9789 28.7729C77.8347 31.6975 78.3452 34.6814 78.5105 37.7244L77.3478 37.758ZM1.1469 36.4712L0.0289307 36.3817C0.285852 33.3579 0.885834 30.4039 1.82886 27.5197L2.89093 27.8665C1.97876 30.6676 1.39741 33.5358 1.1469 36.4712ZM72.4287 20.9403C70.9681 18.3757 69.2353 16.011 67.2302 13.8461L68.0463 13.0853C70.11 15.3163 71.895 17.7519 73.4014 20.392L72.4287 20.9403ZM6.61378 19.8773L5.6635 19.2842C7.25557 16.6953 9.11887 14.3194 11.2534 12.1565L12.0471 12.9398C9.968 15.0583 8.15687 17.3857 6.61378 19.9221V19.8773ZM60.5559 8.11717C58.1044 6.463 55.4958 5.11282 52.7301 4.0666L53.1326 3.0148C55.9701 4.10082 58.6495 5.49205 61.1708 7.18843L60.5559 8.11717ZM18.9003 7.43463L18.2966 6.49469C20.87 4.87426 23.5942 3.5688 26.469 2.57839L26.8267 3.69733C24.039 4.65231 21.3968 5.91295 18.9003 7.47943V7.43463ZM44.2112 1.91825C41.2872 1.53668 38.3581 1.49195 35.4239 1.78399L35.3121 0.665045C38.3324 0.371177 41.3472 0.419667 44.3565 0.810513L44.2112 1.91825Z" fill="#2A4089"/>
<path d="M72.5862 39.8947C72.5863 40.9862 72.5328 42.0751 72.4258 43.1613C72.3188 44.2476 72.1588 45.326 71.9458 46.3965C71.7329 47.4671 71.468 48.5247 71.1511 49.5692C70.8343 50.6137 70.467 51.6401 70.0493 52.6485C69.6316 53.657 69.1655 54.6425 68.6509 55.6052C68.1364 56.5679 67.5759 57.503 66.9695 58.4105C66.3631 59.3181 65.7137 60.1938 65.0212 61.0376C64.3287 61.8814 63.5965 62.6891 62.8247 63.4609C62.0529 64.2328 61.2451 64.9649 60.4014 65.6574C59.5576 66.3499 58.6819 66.9993 57.7743 67.6056C56.8668 68.2121 55.9317 68.7726 54.969 69.2872C54.0064 69.8018 53.0209 70.2678 52.0124 70.6855C51.004 71.1032 49.9775 71.4706 48.933 71.7874C47.8884 72.1043 46.8309 72.3692 45.7604 72.5821C44.6898 72.7951 43.6114 72.955 42.5251 73.0621C41.4389 73.169 40.35 73.2225 39.2585 73.2225C38.1669 73.2225 37.0781 73.169 35.9918 73.062C34.9055 72.955 33.8271 72.7951 32.7565 72.5821C31.686 72.3692 30.6284 72.1043 29.5839 71.7874C28.5394 71.4706 27.5129 71.1032 26.5044 70.6855C25.496 70.2678 24.5105 69.8018 23.5478 69.2872C22.5852 68.7726 21.6501 68.2121 20.7425 67.6056C19.8349 66.9993 18.9593 66.3499 18.1155 65.6574C17.2718 64.9649 16.464 64.2328 15.6921 63.4609C14.9203 62.6891 14.1882 61.8813 13.4957 61.0376C12.8032 60.1938 12.1538 59.3181 11.5474 58.4105C10.941 57.503 10.3805 56.5679 9.86596 55.6052C9.3514 54.6425 8.88528 53.657 8.46756 52.6485C8.04986 51.6401 7.6826 50.6137 7.36574 49.5691C7.04888 48.5246 6.78398 47.4671 6.57101 46.3965C6.35808 45.326 6.19813 44.2476 6.09114 43.1613C5.98414 42.0751 5.93066 40.9862 5.93066 39.8947C5.93066 38.8032 5.98417 37.7143 6.09115 36.628C6.19813 35.5417 6.35809 34.4633 6.57103 33.3927C6.78401 32.3222 7.04889 31.2647 7.36574 30.2201C7.6826 29.1755 8.04986 28.1491 8.46756 27.1406C8.88528 26.1321 9.3514 25.1466 9.86596 24.184C10.3805 23.2213 10.941 22.2862 11.5474 21.3786C12.1538 20.4711 12.8032 19.5955 13.4957 18.7518C14.1882 17.9081 14.9203 17.1003 15.6921 16.3284C16.464 15.5566 17.2718 14.8245 18.1155 14.1319C18.9593 13.4395 19.8349 12.7901 20.7425 12.1837C21.6501 11.5772 22.5852 11.0168 23.5478 10.5022C24.5105 9.98761 25.496 9.52148 26.5044 9.10378C27.5129 8.68608 28.5394 8.31881 29.5839 8.00196C30.6284 7.68512 31.686 7.42028 32.7565 7.20729C33.8271 6.99437 34.9055 6.83442 35.9918 6.72748C37.0781 6.62048 38.1669 6.56698 39.2585 6.56691C40.35 6.56698 41.4389 6.62041 42.5251 6.72735C43.6114 6.83442 44.6898 6.99437 45.7604 7.20722C46.8309 7.42021 47.8885 7.68512 48.933 8.0019C49.9775 8.31881 51.004 8.68608 52.0124 9.10378C53.0209 9.52148 54.0064 9.98761 54.9691 10.5022C55.9317 11.0168 56.8668 11.5772 57.7744 12.1837C58.6819 12.7901 59.5576 13.4395 60.4014 14.1319C61.2451 14.8245 62.0529 15.5566 62.8248 16.3284C63.5966 17.1003 64.3287 17.9081 65.0212 18.7518C65.7136 19.5956 66.3631 20.4712 66.9694 21.3787C67.5759 22.2863 68.1364 23.2214 68.6509 24.1841C69.1655 25.1466 69.6316 26.1321 70.0493 27.1406C70.467 28.1491 70.8343 29.1755 71.1511 30.2201C71.468 31.2647 71.7329 32.3222 71.9458 33.3927C72.1588 34.4633 72.3188 35.5417 72.4258 36.628C72.5328 37.7143 72.5863 38.8032 72.5862 39.8947Z" fill="#F4976E"/>
<path d="M59.3424 58.6389C59.2351 58.3775 59.0811 58.1474 58.8803 57.9484C58.6794 57.7494 58.4477 57.5972 58.1851 57.492C57.9225 57.3868 57.6497 57.3366 57.3667 57.3417C57.0838 57.3469 56.813 57.4069 56.5543 57.5216C56.2296 57.6557 55.8825 57.4434 55.9385 56.8847C56.5431 51.2979 52.3331 47.4989 48.2239 44.4374C46.0083 42.9949 44.1422 41.1922 42.6254 39.0294C41.92 37.912 41.2706 36.6718 40.6772 35.465C40.1139 34.4859 39.834 33.4319 39.8374 32.3029C39.8374 31.9453 40.1733 31.7442 40.442 31.8336C42.2487 32.1983 44.0252 32.0865 45.7717 31.4984C45.9505 31.4557 46.1072 31.4967 46.242 31.6213C47.7088 32.8504 49.8586 36.1913 52.1315 34.8281C52.4288 34.6325 52.6989 34.4048 52.9417 34.145C53.1845 33.8852 53.3934 33.6005 53.5681 33.291C53.7429 32.9814 53.8788 32.6558 53.9758 32.3139C54.0727 31.9721 54.1281 31.6236 54.1417 31.2685C54.1554 30.9135 54.1271 30.5619 54.0567 30.2136C53.9864 29.8653 53.876 29.5301 53.7255 29.2081C53.575 28.8861 53.3888 28.5862 53.1666 28.3085C52.9445 28.0308 52.6928 27.7831 52.4115 27.5653L52.2883 27.4759C50.6983 26.1351 49.1644 24.7161 47.6304 23.3194C46.0964 21.9227 44.8872 20.7271 43.3868 19.5874C41.8864 18.4477 40.1173 17.3527 38.1914 17.8332C38.0121 17.8784 37.8553 17.8374 37.7212 17.7103C35.8401 16.0454 33.8247 12.414 31.1934 13.1068L32.3131 16.8946C32.3407 17.0169 32.3248 17.1332 32.2652 17.2436C32.2056 17.354 32.1171 17.4313 31.9996 17.4757C28.7189 18.7718 26.0988 21.9451 24.3969 24.8949C22.9052 27.2896 22.1588 29.8967 22.1575 32.7164C22.1514 35.3949 22.5806 38.002 23.4452 40.5378C24.1842 42.4485 25.3598 44.1916 26.054 46.1246C26.6075 47.8051 27.0666 49.5109 27.4313 51.2421C27.6888 52.3594 27.8903 53.5662 28.0695 54.7394C28.3047 55.6513 28.342 56.5712 28.1815 57.4992C28.0471 57.8456 27.8344 57.935 27.588 57.8456C27.3116 57.7286 27.0232 57.6737 26.723 57.6812C26.4228 57.6886 26.1376 57.7576 25.8673 57.8882C25.597 58.0188 25.3658 58.1993 25.1737 58.4296C24.9817 58.66 24.8459 58.9197 24.7664 59.2087C24.6016 59.6434 24.5915 60.0817 24.7363 60.5234C24.8811 60.9652 25.1486 61.3128 25.539 61.5663C27.4052 62.2746 29.3348 62.5688 31.3278 62.449C34.4405 62.516 49.769 62.3596 52.8706 62.2032C54.7069 62.125 57.103 62.1362 58.7265 61.0859C59.0973 60.7962 59.3401 60.4236 59.4548 59.9678C59.5695 59.5121 59.532 59.069 59.3424 58.6389Z" fill="#F9F6F1"/>
</svg>
