<svg width="79" height="80" viewBox="0 0 79 80" fill="none" xmlns="http://www.w3.org/2000/svg">
<path d="M78.1525 39.9537C78.1525 41.2241 78.0903 42.4914 77.9659 43.7556C77.8414 45.0198 77.6553 46.2749 77.4076 47.5209C77.1599 48.7669 76.8518 49.9976 76.4832 51.2133C76.1146 52.429 75.6874 53.6236 75.2015 54.7972C74.7157 55.9709 74.1735 57.1179 73.5751 58.2383C72.9765 59.3587 72.3246 60.447 71.6193 61.5033C70.9139 62.5596 70.1585 63.5787 69.3531 64.5607C68.5477 65.5428 67.696 66.4829 66.7983 67.3812C65.9005 68.2795 64.9609 69.1316 63.9795 69.9376C62.998 70.7435 61.9795 71.4992 60.9239 72.205C59.8682 72.9108 58.7806 73.5631 57.6608 74.162C56.5411 74.7609 55.3948 75.3034 54.2218 75.7895C53.0488 76.2757 51.8549 76.7032 50.6399 77.0719C49.425 77.4407 48.1949 77.7489 46.9497 77.9968C45.7045 78.2446 44.4501 78.4309 43.1866 78.5553C41.9231 78.6798 40.6565 78.7421 39.3869 78.7421C38.1173 78.7421 36.8507 78.6799 35.5872 78.5554C34.3237 78.4309 33.0693 78.2446 31.8241 77.9968C30.5789 77.7489 29.3488 77.4406 28.1338 77.0718C26.9189 76.7031 25.7249 76.2756 24.5519 75.7894C23.3789 75.3033 22.2326 74.7608 21.1129 74.162C19.9932 73.5631 18.9055 72.9108 17.8498 72.2049C16.7942 71.4992 15.7756 70.7434 14.7942 69.9375C13.8128 69.1315 12.8732 68.2795 11.9754 67.3812C11.0777 66.4829 10.2261 65.5427 9.42062 64.5607C8.61515 63.5787 7.85974 62.5595 7.15436 61.5032C6.44904 60.447 5.79713 59.3587 5.19862 58.2383C4.60014 57.1179 4.05797 55.9709 3.5721 54.7972C3.08626 53.6236 2.65908 52.429 2.29052 51.2133C1.92196 49.9976 1.61386 48.7669 1.36617 47.5209C1.11847 46.2749 0.93244 45.0198 0.807992 43.7556C0.683544 42.4914 0.621307 41.2241 0.621307 39.9537C0.621307 38.6833 0.68351 37.416 0.807924 36.1517C0.932406 34.8874 1.11847 33.6323 1.3661 32.3863C1.61379 31.1404 1.92196 29.9096 2.29052 28.6939C2.65908 27.4782 3.08626 26.2835 3.5721 25.1098C4.05797 23.9362 4.60014 22.7892 5.19862 21.6689C5.79717 20.5485 6.44908 19.4602 7.15443 18.4038C7.85981 17.3477 8.61521 16.3285 9.42062 15.3465C10.2261 14.3645 11.0777 13.4243 11.9754 12.526C12.8732 11.6278 13.8128 10.7757 14.7942 9.9697C15.7756 9.16386 16.7941 8.40801 17.8498 7.70214C18.9055 6.99642 19.9932 6.34415 21.1129 5.74528C22.2326 5.14648 23.3789 4.60396 24.5519 4.11777C25.7249 3.63164 26.9189 3.20424 28.1338 2.83543C29.3488 2.46669 30.5789 2.15837 31.8241 1.91051C33.0693 1.66269 34.3237 1.47655 35.5872 1.35207C36.8507 1.22751 38.1173 1.16524 39.3869 1.16524C40.6565 1.16524 41.9231 1.22751 43.1866 1.352C44.4501 1.47655 45.7045 1.66269 46.9497 1.91051C48.1949 2.15837 49.425 2.46669 50.6399 2.83543C51.8549 3.20424 53.0488 3.63164 54.2218 4.11777C55.3948 4.60396 56.5411 5.14648 57.6608 5.74528C58.7806 6.34415 59.8682 6.99649 60.9239 7.70221C61.9795 8.40801 62.998 9.16386 63.9795 9.96977C64.9609 10.7757 65.9005 11.6278 66.7983 12.526C67.696 13.4243 68.5477 14.3645 69.3531 15.3465C70.1585 16.3285 70.9139 17.3477 71.6193 18.4038C72.3246 19.4602 72.9766 20.5485 73.5751 21.6689C74.1736 22.7892 74.7158 23.9362 75.2016 25.1098C75.6875 26.2835 76.1147 27.4782 76.4833 28.6939C76.8518 29.9095 77.16 31.1403 77.4076 32.3863C77.6553 33.6323 77.8414 34.8874 77.9659 36.1517C78.0904 37.416 78.1525 38.6833 78.1525 39.9537Z" fill="#F9F6F1"/>
<path d="M39.3869 79.3014C38.8055 79.3014 38.2688 79.3014 37.6538 79.3014V78.1826C40.6032 78.3045 43.529 78.0957 46.4311 77.5561L46.6324 78.6749C44.2363 79.105 41.8212 79.3139 39.3869 79.3014ZM28.7199 77.8358C25.7952 77.011 23.0036 75.8624 20.3451 74.3899L20.893 73.4166C23.473 74.8497 26.1826 75.9685 29.0218 76.773L28.7199 77.8358ZM55.3314 75.9339L54.873 74.9046C57.5714 73.7097 60.0947 72.2179 62.4427 70.4294L63.1248 71.3245C60.7023 73.1576 58.1045 74.6941 55.3314 75.9339ZM12.9878 69.1204C10.7406 67.0747 8.7503 64.8035 7.017 62.307L7.94504 61.6692C9.62114 64.0998 11.5518 66.3075 13.7369 68.2924L12.9878 69.1204ZM69.6547 65.0592L68.8049 64.3432C70.6897 62.0718 72.2887 59.6142 73.6016 56.9703L74.5968 57.4738C73.2453 60.1952 71.5978 62.7236 69.6547 65.0592ZM2.76809 54.3188C1.65985 51.4879 0.888344 48.5678 0.453548 45.5587L1.57168 45.4021C1.98569 48.3236 2.7311 51.1578 3.80794 53.9048L2.76809 54.3188ZM77.6828 48.9487L76.5647 48.6914C77.2331 45.8172 77.5685 42.9046 77.5711 39.9536H78.6892C78.6987 42.9914 78.3596 45.9898 77.6717 48.9487H77.6828ZM77.5487 37.8503C77.3811 34.9001 76.8854 32.0061 76.0615 29.1685L77.1797 28.8552C78.0374 31.779 78.5443 34.7624 78.7003 37.8055L77.5487 37.8503ZM1.33688 36.6085L0.21875 36.5077C0.482148 33.4796 1.08966 30.5223 2.04131 27.6357L3.10355 27.9826C2.17892 30.7893 1.58636 33.6645 1.32576 36.6084L1.33688 36.6085ZM72.6177 21.0684C71.1619 18.5037 69.4325 16.1393 67.4295 13.9753L68.2457 13.2145C70.3098 15.4428 72.0914 17.8781 73.5904 20.5203L72.6177 21.0684ZM6.80452 19.9497L5.84295 19.3567C7.4391 16.771 9.30264 14.3955 11.4336 12.23L12.2275 13.0243C10.1448 15.14 8.33346 17.4671 6.7934 20.0056L6.80452 19.9497ZM60.7431 8.19116C58.2904 6.53886 55.6814 5.18885 52.9162 4.14115L53.3187 3.08949C56.1544 4.17311 58.8305 5.56415 61.3469 7.26255L60.7431 8.19116ZM19.0816 7.50872L18.489 6.56891C21.0599 4.94555 23.7844 3.64404 26.6625 2.66434L27.0203 3.716C24.2216 4.69132 21.5717 5.97421 19.0705 7.56464L19.0816 7.50872ZM44.4072 1.99309C41.4828 1.61172 38.5533 1.56693 35.6187 1.85884L35.5069 0.740054C38.5276 0.446159 41.5428 0.494631 44.5526 0.885502L44.4072 1.99309Z" fill="#2A4089"/>
<path d="M72.7648 39.9807C72.7649 41.0722 72.7114 42.1611 72.6043 43.2473C72.4974 44.3336 72.3373 45.412 72.1244 46.4825C71.9114 47.553 71.6465 48.6106 71.3297 49.6552C71.0128 50.6997 70.6455 51.7261 70.2277 52.7346C69.81 53.743 69.344 54.7285 68.8294 55.6912C68.3148 56.6539 67.7543 57.589 67.1479 58.4964C66.5415 59.4041 65.8921 60.2798 65.1997 61.1236C64.5073 61.9672 63.7751 62.775 63.0033 63.5469C62.2314 64.3187 61.4236 65.0509 60.5799 65.7432C59.7361 66.4358 58.8605 67.0852 57.9529 67.6916C57.0453 68.298 56.1103 68.8585 55.1476 69.373C54.185 69.8876 53.1994 70.3537 52.191 70.7714C51.1825 71.1892 50.1561 71.5565 49.1116 71.8734C48.067 72.1902 47.0095 72.4551 45.9389 72.668C44.8684 72.881 43.79 73.041 42.7037 73.148C41.6175 73.255 40.5286 73.3085 39.437 73.3085C38.3455 73.3085 37.2566 73.255 36.1703 73.148C35.0841 73.041 34.0057 72.881 32.9351 72.668C31.8645 72.4551 30.807 72.1902 29.7625 71.8734C28.7179 71.5565 27.6914 71.1892 26.683 70.7715C25.6746 70.3538 24.6891 69.8876 23.7264 69.373C22.7638 68.8585 21.8287 68.298 20.9211 67.6916C20.0135 67.0852 19.1379 66.4358 18.2941 65.7433C17.4503 65.0509 16.6425 64.3187 15.8707 63.5469C15.0989 62.775 14.3668 61.9672 13.6743 61.1235C12.9818 60.2797 12.3324 59.404 11.7259 58.4964C11.1195 57.5889 10.5591 56.6538 10.0445 55.6912C9.52999 54.7285 9.06385 53.743 8.64612 52.7346C8.22843 51.7261 7.86115 50.6997 7.54431 49.6552C7.22746 48.6106 6.96256 47.553 6.7496 46.4825C6.53666 45.412 6.37673 44.3336 6.26976 43.2474C6.16279 42.1611 6.10929 41.0722 6.10925 39.9807C6.10929 38.8891 6.16276 37.8002 6.26972 36.714C6.37669 35.6277 6.53666 34.5492 6.7496 33.4786C6.96256 32.4081 7.22746 31.3506 7.54434 30.3061C7.86115 29.2616 8.22843 28.2351 8.64612 27.2266C9.06385 26.2182 9.52999 25.2327 10.0445 24.27C10.5591 23.3073 11.1196 22.3722 11.726 21.4646C12.3324 20.5571 12.9819 19.6814 13.6743 18.8378C14.3668 17.994 15.0989 17.1862 15.8707 16.4143C16.6425 15.6425 17.4503 14.9103 18.2941 14.2179C19.1379 13.5254 20.0135 12.876 20.9211 12.2696C21.8286 11.6632 22.7638 11.1027 23.7264 10.5882C24.689 10.0736 25.6746 9.60749 26.683 9.18979C27.6914 8.7721 28.7179 8.40482 29.7625 8.08798C30.807 7.77113 31.8645 7.50629 32.935 7.29331C34.0056 7.0804 35.084 6.92044 36.1703 6.81343C37.2566 6.70643 38.3455 6.65292 39.437 6.65292C40.5286 6.65292 41.6175 6.70643 42.7037 6.81343C43.79 6.92044 44.8684 7.0804 45.9389 7.29331C47.0095 7.50629 48.067 7.7712 49.1116 8.08805C50.1561 8.40489 51.1825 8.7721 52.191 9.18979C53.1994 9.60749 54.185 10.0736 55.1476 10.5882C56.1102 11.1027 57.0453 11.6632 57.9528 12.2696C58.8605 12.876 59.7361 13.5254 60.5799 14.2179C61.4236 14.9103 62.2314 15.6425 63.0033 16.4143C63.7751 17.1862 64.5073 17.994 65.1997 18.8377C65.8921 19.6814 66.5415 20.5571 67.1479 21.4646C67.7543 22.3722 68.3148 23.3073 68.8293 24.27C69.3439 25.2327 69.81 26.2182 70.2277 27.2266C70.6455 28.2351 71.0128 29.2616 71.3297 30.3061C71.6465 31.3507 71.9114 32.4082 72.1244 33.4787C72.3373 34.5492 72.4974 35.6277 72.6043 36.714C72.7114 37.8002 72.7649 38.8891 72.7648 39.9807Z" fill="#F4976E"/>
<path d="M22.5359 34.9786C25.4937 36.6607 27.3577 41.2134 27.6925 44.6895C26.9967 44.6911 26.3235 44.8161 25.6731 45.0647C25.0228 45.3132 24.4371 45.6693 23.9161 46.1328C23.3952 46.5963 22.9726 47.1373 22.6484 47.7558C22.3242 48.3745 22.1193 49.0306 22.0336 49.7244C21.8997 51.1821 22.2011 53.0885 23.5628 53.8958L23.9088 54.0752C23.3232 54.7326 22.9416 55.4933 22.764 56.3573C22.5864 57.2213 22.6369 58.0715 22.9154 58.9082C23.7748 62.1489 27.0339 62.0817 29.7573 61.8574C29.9471 62.4068 49.7922 62.0704 49.9373 61.6219C52.7499 61.8013 55.6631 61.7564 56.7011 58.5382C56.8538 58.1257 56.9442 57.6997 56.9721 57.2605C57 56.8213 56.9644 56.3873 56.8651 55.9586C56.7659 55.5299 56.6073 55.1246 56.3893 54.7428C56.1713 54.361 55.9032 54.0189 55.5849 53.7163C55.7062 53.6638 55.8216 53.6003 55.931 53.5257C57.2703 52.651 57.5382 50.7896 57.3708 49.3319C57.2703 48.6396 57.0511 47.9876 56.7134 47.3758C56.3757 46.764 55.9411 46.232 55.4099 45.7798C54.8786 45.3275 54.2849 44.9843 53.6287 44.7502C52.9726 44.516 52.2964 44.4061 51.6003 44.4204C51.857 40.9442 53.6093 36.3354 56.5337 34.5861C56.604 34.5514 56.6673 34.5065 56.7234 34.4515C56.9042 34.3047 57.0226 34.118 57.0785 33.8912C57.1344 33.6645 57.1165 33.4438 57.0248 33.2292C56.9688 33.0279 56.8614 32.8597 56.7026 32.7248C56.5438 32.5897 56.361 32.5112 56.1542 32.4891H55.9868C54.3126 32.4891 52.6383 32.4891 50.9641 32.3658C50.8639 31.5065 50.6407 30.6808 50.2944 29.8887C49.9482 29.0967 49.4941 28.3729 48.9321 27.7175C48.3702 27.062 47.7251 26.5036 46.9968 26.0421C46.2684 25.5807 45.4888 25.2366 44.6579 25.0097C45.2937 24.2018 45.7353 23.2981 45.9825 22.2985C46.2298 21.2989 46.2608 20.2926 46.0754 19.2796C45.5396 16.1511 42.2582 15.0745 39.3116 15.1082C36.365 15.1419 33.329 16.3193 32.6147 19.4254C32.4207 20.446 32.4599 21.4574 32.7324 22.4598C33.0048 23.4621 33.4827 24.3532 34.1661 25.1331C33.3396 25.377 32.5669 25.7373 31.8479 26.214C31.129 26.6908 30.4955 27.263 29.9474 27.9306C29.3992 28.5981 28.9606 29.3318 28.6315 30.1316C28.3024 30.9314 28.0973 31.7621 28.0162 32.6238C26.3531 32.8031 24.6677 32.8368 23.0047 32.8593H22.8707C22.6629 32.8852 22.4806 32.9678 22.3237 33.107C22.1667 33.2462 22.0626 33.4177 22.0113 33.6218C21.9258 33.8357 21.9131 34.0538 21.9731 34.2762C22.0331 34.4986 22.1537 34.6804 22.335 34.8216L22.5359 34.9786Z" fill="#F9F6F1"/>
</svg>
