<svg width="80" height="80" viewBox="0 0 80 80" fill="none" xmlns="http://www.w3.org/2000/svg">
<path d="M78.7476 40.2891C78.7477 41.5604 78.6853 42.8286 78.5604 44.0937C78.4356 45.3589 78.2489 46.6149 78.0004 47.8616C77.752 49.1085 77.4429 50.3402 77.0732 51.5568C76.7034 52.7733 76.2748 53.9688 75.7874 55.1433C75.3001 56.3178 74.7562 57.4656 74.1558 58.5868C73.5555 59.7079 72.9015 60.797 72.1939 61.8539C71.4863 62.911 70.7286 63.9309 69.9206 64.9136C69.1126 65.8963 68.2583 66.837 67.3578 67.7359C66.4572 68.6349 65.5146 69.4875 64.5302 70.294C63.5457 71.1005 62.5239 71.8569 61.4649 72.5631C60.406 73.2694 59.3149 73.9222 58.1917 74.5215C57.0684 75.1207 55.9185 75.6636 54.7418 76.1501C53.5652 76.6366 52.3675 77.0644 51.1487 77.4334C49.93 77.8024 48.696 78.111 47.4468 78.3589C46.1978 78.607 44.9395 78.7933 43.672 78.918C42.4045 79.0425 41.134 79.1049 39.8604 79.1049C38.5867 79.1049 37.3162 79.0425 36.0487 78.918C34.7813 78.7933 33.5229 78.607 32.2737 78.3589C31.0246 78.111 29.7907 77.8024 28.5719 77.4334C27.3532 77.0644 26.1555 76.6366 24.9788 76.1501C23.8021 75.6636 22.6522 75.1207 21.529 74.5215C20.4058 73.9222 19.3146 73.2694 18.2557 72.5631C17.1967 71.8569 16.175 71.1005 15.1905 70.294C14.206 69.4875 13.2635 68.6349 12.3629 67.7359C11.4623 66.837 10.6081 65.8963 9.80008 64.9136C8.99213 63.9309 8.23434 62.911 7.52674 61.8539C6.81918 60.797 6.16522 59.7079 5.56483 58.5867C4.96447 57.4656 4.42057 56.3178 3.93317 55.1433C3.4458 53.9688 3.01725 52.7733 2.64753 51.5568C2.27782 50.3402 1.96873 49.1085 1.72025 47.8616C1.47181 46.6149 1.28516 45.3589 1.16032 44.0937C1.03553 42.8286 0.973117 41.5604 0.973083 40.2891C0.973117 39.0179 1.03556 37.7497 1.16039 36.4845C1.28519 35.2193 1.47181 33.9634 1.72025 32.7165C1.96873 31.4697 2.27785 30.2381 2.64757 29.0216C3.01728 27.805 3.4458 26.6094 3.93317 25.4349C4.42057 24.2605 4.96447 23.1127 5.56483 21.9915C6.16522 20.8704 6.81918 19.7812 7.52674 18.7242C8.23434 17.6672 8.99213 16.6474 9.80008 15.6647C10.6081 14.682 11.4623 13.7412 12.3629 12.8422C13.2635 11.9433 14.206 11.0906 15.1905 10.2841C16.175 9.47763 17.1967 8.72125 18.2557 8.01496C19.3146 7.30873 20.4058 6.65601 21.529 6.0568C22.6522 5.45758 23.8021 4.91467 24.9788 4.42814C26.1555 3.94167 27.3532 3.5139 28.5719 3.1449C29.7907 2.77583 31.0246 2.46723 32.2737 2.21926C33.5229 1.97127 34.7813 1.785 36.0487 1.66043C37.3162 1.53585 38.5867 1.47353 39.8604 1.47346C41.134 1.47353 42.4045 1.53585 43.672 1.66043C44.9395 1.785 46.1978 1.97127 47.4468 2.21926C48.696 2.46723 49.93 2.77583 51.1487 3.1449C52.3675 3.5139 53.5652 3.94167 54.7418 4.42814C55.9185 4.91467 57.0684 5.45758 58.1917 6.0568C59.3149 6.65601 60.406 7.30873 61.4649 8.01496C62.5239 8.72125 63.5457 9.47763 64.5302 10.2841C65.5146 11.0906 66.4572 11.9433 67.3578 12.8422C68.2583 13.7412 69.1126 14.682 69.9206 15.6647C70.7286 16.6474 71.4863 17.6672 72.1939 18.7242C72.9015 19.7812 73.5555 20.8704 74.1558 21.9915C74.7562 23.1127 75.3001 24.2605 75.7874 25.4349C76.2748 26.6094 76.7034 27.805 77.0732 29.0216C77.4429 30.2381 77.752 31.4697 78.0004 32.7165C78.2489 33.9634 78.4356 35.2193 78.5604 36.4845C78.6853 37.7497 78.7477 39.0179 78.7476 40.2891Z" fill="#F9F6F1"/>
<path d="M39.8603 79.6646C39.2883 79.6646 38.7387 79.6646 38.133 79.6646L38.1891 78.545C41.1435 78.6703 44.0747 78.4651 46.9827 77.9293L47.1846 79.0488C44.7623 79.48 42.3208 79.6852 39.8603 79.6646ZM29.1711 78.1979C26.2372 77.3725 23.4369 76.2231 20.77 74.7496L21.3084 73.7644C23.8985 75.2032 26.6203 76.3227 29.474 77.1231L29.1711 78.1979ZM55.8549 76.2947L55.4063 75.2647C58.1116 74.066 60.6427 72.5732 62.9998 70.7864L63.6727 71.682C61.2441 73.5189 58.6381 75.0565 55.8549 76.2947ZM13.3897 69.4653C11.1294 67.4274 9.13289 65.1584 7.40011 62.6582L8.31986 62.0201C10.0025 64.4516 11.943 66.6571 14.1412 68.6367L13.3897 69.4653ZM70.2792 65.4124L69.4155 64.6958C71.3095 62.4228 72.9172 59.9635 74.2386 57.3178L75.2368 57.8216C73.8785 60.5433 72.226 63.0735 70.2792 65.4124ZM3.17147 54.6645C2.06342 51.831 1.29321 48.9089 0.860895 45.8982L1.98253 45.7414C2.39756 48.665 3.14535 51.5013 4.22581 54.2501L3.17147 54.6645ZM78.3213 49.2905L77.1997 49.033C77.8761 46.1575 78.2126 43.2429 78.2092 40.2891H79.3309C79.3239 43.3298 78.9725 46.3302 78.2765 49.2905H78.3213ZM78.1755 38.1843C78.0167 35.2315 77.5232 32.3355 76.695 29.4964L77.8166 29.1829C78.6751 32.1092 79.1874 35.0948 79.3532 38.1395L78.1755 38.1843ZM1.72455 36.9416L0.602905 36.8408C0.863462 33.8111 1.46915 30.8517 2.41996 27.9626L3.48553 28.3097C2.55034 31.1174 1.94837 33.9947 1.6797 36.9416L1.72455 36.9416ZM73.2403 21.3907C71.7803 18.8206 70.0454 16.4508 68.0359 14.2814L68.8659 13.5201C70.9338 15.7519 72.721 18.1888 74.2274 20.8309L73.2403 21.3907ZM7.20935 20.2711L6.25595 19.6777C7.85013 17.0849 9.71951 14.7076 11.8641 12.546L12.6605 13.341C10.5559 15.456 8.72388 17.7847 7.16454 20.3271L7.20935 20.2711ZM61.3061 8.56035C58.8457 6.9069 56.2285 5.55593 53.4546 4.5075L53.8472 3.45509C56.6941 4.54173 59.3822 5.93375 61.9117 7.63109L61.3061 8.56035ZM19.5138 7.87743L18.9193 6.93695C21.4968 5.31746 24.2261 4.01502 27.1073 3.02965L27.4774 4.08205C24.6674 5.03688 22.0054 6.302 19.4914 7.87743H19.5138ZM44.9189 2.35793C41.9816 1.97614 39.0392 1.9314 36.0916 2.22359L35.9794 1.10401C39.0134 0.810246 42.0418 0.858763 45.0647 1.24956L44.9189 2.35793Z" fill="#2A4089"/>
<path d="M73.1151 40.2884C73.1151 41.3799 73.0616 42.4688 72.9546 43.5551C72.8476 44.6413 72.6876 45.7197 72.4746 46.7902C72.2616 47.8607 71.9968 48.9183 71.6799 49.9629C71.3631 51.0074 70.9958 52.0339 70.5781 53.0422C70.1604 54.0507 69.6943 55.0362 69.1798 55.9989C68.6652 56.9615 68.1047 57.8966 67.4982 58.8042C66.8918 59.7118 66.2424 60.5875 65.55 61.4313C64.8575 62.275 64.1254 63.0828 63.3535 63.8546C62.5817 64.6264 61.774 65.3586 60.9302 66.051C60.0864 66.7435 59.2108 67.3929 58.3032 67.9993C57.3956 68.6057 56.4605 69.1662 55.4979 69.6808C54.5352 70.1954 53.5496 70.6614 52.5412 71.0791C51.5328 71.4969 50.5063 71.8642 49.4618 72.1809C48.4173 72.4979 47.3597 72.7628 46.2891 72.9757C45.2186 73.1887 44.1402 73.3486 43.054 73.4556C41.9677 73.5626 40.8788 73.6161 39.7872 73.6161C38.6957 73.6161 37.6069 73.5626 36.5206 73.4556C35.4343 73.3486 34.3558 73.1887 33.2853 72.9757C32.2147 72.7628 31.1572 72.4979 30.1127 72.1811C29.0681 71.8642 28.0416 71.4969 27.0332 71.0791C26.0247 70.6614 25.0392 70.1953 24.0766 69.6807C23.1139 69.1662 22.1788 68.6057 21.2712 67.9993C20.3637 67.3929 19.488 66.7435 18.6443 66.051C17.8006 65.3586 16.9928 64.6264 16.2209 63.8546C15.4491 63.0828 14.7169 62.275 14.0245 61.4312C13.332 60.5874 12.6826 59.7118 12.0761 58.8042C11.4697 57.8966 10.9093 56.9615 10.3947 55.9989C9.88015 55.0362 9.41404 54.0507 8.9963 53.0422C8.57864 52.0339 8.21137 51.0074 7.89453 49.9629C7.57765 48.9183 7.31273 47.8607 7.09979 46.7902C6.8869 45.7197 6.72695 44.6413 6.61994 43.5551C6.51298 42.4688 6.45947 41.3799 6.45947 40.2884C6.45947 39.1968 6.51298 38.108 6.61994 37.0218C6.72695 35.9354 6.8869 34.857 7.09979 33.7864C7.31273 32.7159 7.57765 31.6584 7.89449 30.6138C8.21137 29.5693 8.57864 28.5428 8.9963 27.5343C9.41404 26.5259 9.88015 25.5404 10.3947 24.5777C10.9093 23.6151 11.4697 22.68 12.0761 21.7724C12.6826 20.8648 13.332 19.9892 14.0245 19.1455C14.7169 18.3017 15.4491 17.4939 16.2209 16.7221C16.9928 15.9503 17.8006 15.2182 18.6443 14.5257C19.488 13.8332 20.3637 13.1838 21.2712 12.5774C22.1788 11.971 23.1139 11.4105 24.0766 10.896C25.0392 10.3814 26.0247 9.91529 27.0332 9.49752C28.0417 9.07983 29.0682 8.71255 30.1127 8.39571C31.1572 8.07887 32.2147 7.81396 33.2853 7.60097C34.3558 7.38813 35.4343 7.22816 36.5206 7.12109C37.6069 7.01416 38.6957 6.96065 39.7872 6.96059C40.8788 6.96065 41.9677 7.01416 43.0539 7.12109C44.1402 7.22816 45.2186 7.38813 46.2891 7.60097C47.3597 7.81396 48.4173 8.07887 49.4618 8.39571C50.5063 8.71255 51.5328 9.07983 52.5412 9.49752C53.5496 9.91529 54.5352 10.3814 55.4978 10.896C56.4605 11.4105 57.3956 11.971 58.3031 12.5774C59.2107 13.1838 60.0864 13.8332 60.9302 14.5257C61.774 15.2182 62.5817 15.9503 63.3535 16.7221C64.1254 17.4939 64.8575 18.3017 65.55 19.1454C66.2424 19.9892 66.8918 20.8648 67.4982 21.7724C68.1047 22.68 68.6652 23.6151 69.1798 24.5777C69.6943 25.5404 70.1604 26.5259 70.5781 27.5343C70.9958 28.5428 71.3631 29.5693 71.6799 30.6138C71.9968 31.6584 72.2616 32.7159 72.4746 33.7864C72.6876 34.857 72.8476 35.9354 72.9546 37.0218C73.0616 38.108 73.1151 39.1968 73.1151 40.2884Z" fill="#F4976E"/>
<path d="M24.8018 57.1035L25.1821 57.2935C24.6416 57.8789 24.2873 58.5609 24.119 59.3395C23.9508 60.118 23.9919 60.8853 24.2425 61.6414C25.0255 64.5474 27.9786 64.458 30.4171 64.2457C31.0435 66.0005 49.5674 65.844 50.1827 64.0221C52.7219 64.1898 55.3506 64.1786 56.2902 61.2837C56.4304 60.9126 56.513 60.5291 56.5379 60.1333C56.5627 59.7374 56.5287 59.3466 56.436 58.961C56.3433 58.5753 56.1958 58.2118 55.9937 57.8704C55.7915 57.529 55.5436 57.225 55.2499 56.9582C55.3825 56.9022 55.5093 56.8351 55.6302 56.757C56.1641 56.2955 56.5443 55.7306 56.7705 55.0623C56.9968 54.394 57.038 53.7145 56.8942 53.0238C56.8177 52.4661 56.6518 51.9364 56.3965 51.4346C56.1412 50.9328 55.8105 50.4867 55.4046 50.0963C54.9987 49.706 54.5399 49.3929 54.0283 49.1571C53.5167 48.9212 52.9805 48.7758 52.4198 48.7207C53.8103 47.204 54.8767 45.4865 55.619 43.568C56.0106 42.2736 56.1873 40.9505 56.149 39.5988C56.1108 38.2471 55.8595 36.936 55.3953 35.6658C53.7621 31.0162 47.979 27.4954 43.0907 27.283C43.0907 26.4559 43.0907 25.6176 43.0907 24.7905C44.489 24.7905 45.8984 24.8464 47.2967 24.7905C47.4749 24.783 47.639 24.7308 47.7889 24.634H47.8448C48.1088 24.4541 48.2356 24.2045 48.2251 23.8852C48.2251 22.4992 48.3034 21.1245 48.2922 19.7385C48.3046 19.4483 48.1964 19.2136 47.9678 19.0343C47.7889 18.8649 47.5763 18.7867 47.3302 18.7996H43.3928C43.3928 17.4807 43.4822 16.1618 43.4822 14.8429C43.4892 14.6511 43.4378 14.4765 43.3279 14.319C43.218 14.1616 43.0719 14.0531 42.8894 13.9934C42.7744 13.9464 42.655 13.9166 42.5314 13.904C41.8416 13.865 41.1518 13.865 40.462 13.904H39.0191C38.3256 13.8649 37.6321 13.8649 36.9385 13.904C36.8186 13.9167 36.703 13.9465 36.5918 13.9934C36.4116 14.0576 36.2687 14.1694 36.1631 14.3287C36.0574 14.4881 36.0102 14.6632 36.0213 14.8541C36.0213 16.173 36.1443 17.4919 36.2003 18.8107H32.2628C32.0164 18.8049 31.8039 18.8869 31.6252 19.0566C31.4032 19.2436 31.2988 19.4821 31.312 19.772C31.312 21.1579 31.435 22.5327 31.4686 23.9187C31.4698 24.2371 31.604 24.483 31.8713 24.6563C32.0182 24.7624 32.1823 24.8146 32.3635 24.8128C33.7617 24.8687 35.16 24.8128 36.5582 24.7458C36.5582 25.5841 36.5582 26.4112 36.5582 27.2383C35.2544 27.3572 33.9891 27.6446 32.762 28.1006C31.535 28.5567 30.3891 29.1653 29.3245 29.9266C28.2599 30.6878 27.3136 31.5751 26.4857 32.5884C25.6578 33.6018 24.9772 34.7058 24.4439 35.9005C24.0189 37.1834 23.8065 38.5004 23.8065 39.8516C23.8065 41.2029 24.0189 42.52 24.4439 43.8027C25.186 45.7459 26.3046 47.4411 27.7997 48.8883C27.2439 48.9607 26.7151 49.1215 26.2133 49.3708C25.7114 49.6201 25.2638 49.9443 24.8706 50.3433C24.4773 50.7423 24.1598 51.1944 23.918 51.6996C23.6763 52.2049 23.5234 52.7357 23.4595 53.2921C23.3135 54.0024 23.3609 54.6996 23.6018 55.3837C23.8427 56.0678 24.2427 56.641 24.8018 57.1035Z" fill="#F9F6F1"/>
</svg>
