<svg width="79" height="80" viewBox="0 0 79 80" fill="none" xmlns="http://www.w3.org/2000/svg">
<path d="M78.1142 40.2707C78.1142 41.5411 78.0519 42.8084 77.9275 44.0726C77.803 45.3369 77.617 46.5919 77.3693 47.8379C77.1216 49.0839 76.8135 50.3147 76.445 51.5303C76.0764 52.7459 75.6492 53.9405 75.1633 55.1141C74.6775 56.2878 74.1353 57.4348 73.5368 58.5553C72.9383 59.6757 72.2864 60.764 71.581 61.8203C70.8756 62.8765 70.1203 63.8957 69.3148 64.8777C68.5094 65.8597 67.6578 66.7999 66.76 67.6981C65.8623 68.5964 64.9227 69.4486 63.9413 70.2544C62.9598 71.0603 61.9413 71.8161 60.8856 72.5218C59.83 73.2276 58.7423 73.8799 57.6226 74.4789C56.5029 75.0777 55.3566 75.6202 54.1836 76.1063C53.0106 76.5924 51.8166 77.0199 50.6017 77.3887C49.3867 77.7574 48.1567 78.0657 46.9114 78.3135C45.6662 78.5614 44.4119 78.7476 43.1484 78.8721C41.8849 78.9967 40.6183 79.0589 39.3487 79.0589C38.0791 79.0589 36.8125 78.9967 35.549 78.8722C34.2855 78.7476 33.0311 78.5614 31.7859 78.3135C30.5407 78.0657 29.3106 77.7574 28.0956 77.3887C26.8807 77.0199 25.6867 76.5924 24.5137 76.1062C23.3408 75.6201 22.1944 75.0776 21.0747 74.4789C19.955 73.8799 18.8674 73.2276 17.8117 72.5218C16.7561 71.8161 15.7375 71.0603 14.7561 70.2544C13.7747 69.4486 12.8351 68.5964 11.9373 67.6981C11.0396 66.7999 10.188 65.8598 9.38255 64.8778C8.57711 63.8958 7.82171 62.8765 7.11633 61.8203C6.41098 60.7641 5.75904 59.6758 5.16056 58.5554C4.56208 57.435 4.01988 56.288 3.53401 55.1143C3.04817 53.9407 2.62096 52.7461 2.2524 51.5304C1.88384 50.3147 1.57571 49.0839 1.32802 47.8379C1.08032 46.5919 0.89429 45.3369 0.769875 44.0726C0.645428 42.8084 0.583191 41.5411 0.583191 40.2707C0.583191 39.0004 0.645428 37.7331 0.769875 36.4688C0.894323 35.2045 1.08035 33.9494 1.32805 32.7034C1.57574 31.4575 1.88388 30.2267 2.25243 29.0111C2.62099 27.7954 3.04817 26.6008 3.53401 25.4271C4.01988 24.2534 4.56208 23.1064 5.16056 21.986C5.75904 20.8657 6.41098 19.7774 7.11633 18.7211C7.82171 17.6648 8.57711 16.6457 9.38255 15.6637C10.188 14.6817 11.0396 13.7416 11.9373 12.8433C12.8351 11.945 13.7747 11.0929 14.7561 10.287C15.7375 9.48114 16.7561 8.72529 17.8117 8.01943C18.8673 7.3137 19.955 6.66138 21.0747 6.06259C22.1944 5.46373 23.3408 4.9212 24.5137 4.43501C25.6867 3.94889 26.8807 3.5215 28.0956 3.15276C29.3106 2.78395 30.5407 2.47565 31.7859 2.22777C33.0311 1.97996 34.2855 1.79389 35.549 1.6694C36.8125 1.54486 38.0791 1.48257 39.3487 1.48257C40.6183 1.48257 41.8849 1.54486 43.1484 1.6694C44.4119 1.79389 45.6662 1.98003 46.9114 2.22784C48.1567 2.47571 49.3867 2.78402 50.6017 3.15276C51.8166 3.5215 53.0106 3.94889 54.1836 4.43501C55.3566 4.9212 56.5029 5.46373 57.6226 6.06259C58.7423 6.66138 59.83 7.3137 60.8856 8.01943C61.9413 8.72529 62.9598 9.48114 63.9412 10.287C64.9227 11.0929 65.8623 11.945 66.76 12.8433C67.6578 13.7416 68.5094 14.6817 69.3148 15.6637C70.1203 16.6457 70.8756 17.6648 71.581 18.7211C72.2864 19.7774 72.9383 20.8657 73.5368 21.986C74.1353 23.1064 74.6775 24.2534 75.1633 25.4271C75.6492 26.6008 76.0764 27.7955 76.445 29.0111C76.8135 30.2267 77.1216 31.4575 77.3693 32.7034C77.617 33.9494 77.8031 35.2045 77.9275 36.4688C78.052 37.7331 78.1142 39.0004 78.1142 40.2707Z" fill="#F9F6F1"/>
<path d="M39.3487 79.6183C38.7784 79.6183 38.2306 79.6183 37.6268 79.6183L37.6827 78.4995C40.6283 78.6306 43.5503 78.4255 46.4488 77.8842L46.65 79.0029C44.2352 79.4332 41.8014 79.6383 39.3487 79.6183ZM28.6929 78.1526C25.7683 77.3278 22.9767 76.1792 20.3182 74.7068L20.8549 73.7222C23.4368 75.16 26.1501 76.2788 28.9948 77.0786L28.6929 78.1526ZM55.2932 76.2395L54.846 75.2214C57.5405 74.0197 60.0637 72.528 62.4157 70.7463L63.0866 71.6413C60.6676 73.4775 58.0698 75.0102 55.2932 76.2395ZM12.9609 69.4261C10.7078 67.3897 8.71747 65.1223 6.99006 62.6239L7.90693 61.9862C9.58156 64.4318 11.5159 66.6507 13.71 68.643L12.9609 69.4261ZM69.6276 65.3761L68.7666 64.6601C70.6547 62.3888 72.2573 59.9312 73.5746 57.2873L74.5697 57.7907C73.2156 60.5105 71.5682 63.0389 69.6276 65.3761ZM2.72996 54.6358C1.62009 51.8059 0.852298 48.8858 0.426615 45.8757L1.54474 45.7191C1.95852 48.6407 2.70393 51.4749 3.781 54.2218L2.72996 54.6358ZM77.6445 49.2657L76.5264 49.0084C77.2006 46.1349 77.5361 43.2223 77.5327 40.2707H78.6509C78.6587 43.3075 78.3233 46.3058 77.6445 49.2657ZM77.4992 38.1562C77.329 35.208 76.8258 32.3177 75.9897 29.4856L77.1079 29.1723C77.9638 32.0966 78.4744 35.08 78.6397 38.1226L77.4992 38.1562ZM1.28756 36.9144L0.169434 36.8248C0.429175 33.7972 1.03297 30.8399 1.9808 27.9529L3.04303 28.2997C2.12605 31.1036 1.54088 33.9751 1.28756 36.9144ZM72.6354 21.3857C71.1756 18.8207 69.4425 16.4563 67.4361 14.2925L68.2635 13.5318C70.3275 15.7601 72.1091 18.1953 73.6081 20.8375L72.6354 21.3857ZM6.81115 20.2669L5.86074 19.6739C7.44992 17.0828 9.31346 14.7073 11.4514 12.5472L12.2452 13.3304C10.1459 15.4495 8.31589 17.7803 6.75522 20.3228L6.81115 20.2669ZM60.7608 8.50846C58.3081 6.8561 55.6992 5.50611 52.9339 4.45847L53.3253 3.40681C56.1632 4.49268 58.843 5.88372 61.3646 7.57985L60.7608 8.50846ZM19.0994 7.82602L18.5068 6.88621C21.0738 5.26287 23.7946 3.96136 26.6691 2.98167L27.0381 4.03333C24.2226 5.00291 21.5577 6.28579 19.0435 7.88194L19.0994 7.82602ZM44.425 2.31043C41.4969 1.92899 38.5637 1.88426 35.6253 2.17618L35.5135 1.0574C38.5379 0.763842 41.5569 0.812324 44.5703 1.20285L44.425 2.31043Z" fill="#2A4089"/>
<path d="M72.7268 40.2983C72.7268 41.3899 72.6733 42.4788 72.5663 43.565C72.4593 44.6512 72.2993 45.7296 72.0863 46.8001C71.8734 47.8708 71.6085 48.9283 71.2917 49.9728C70.9748 51.0173 70.6075 52.0437 70.1898 53.0521C69.7721 54.0606 69.306 55.0462 68.7914 56.0088C68.2769 56.9714 67.7164 57.9065 67.1099 58.814C66.5035 59.7216 65.8541 60.5973 65.1617 61.4411C64.4692 62.2849 63.7371 63.0927 62.9652 63.8645C62.1934 64.6363 61.3856 65.3685 60.5418 66.061C59.6981 66.7534 58.8224 67.4028 57.9148 68.0092C57.0073 68.6157 56.0721 69.1762 55.1095 69.6907C54.1469 70.2053 53.1613 70.6714 52.1529 71.089C51.1444 71.5067 50.118 71.8741 49.0734 72.191C48.0289 72.5078 46.9714 72.7726 45.9008 72.9856C44.8303 73.1986 43.7519 73.3586 42.6656 73.4656C41.5794 73.5725 40.4905 73.626 39.399 73.626C38.3075 73.626 37.2186 73.5725 36.1323 73.4656C35.0461 73.3586 33.9676 73.1986 32.897 72.9856C31.8265 72.7726 30.7689 72.5078 29.7244 72.1909C28.6799 71.8741 27.6534 71.5067 26.645 71.089C25.6366 70.6714 24.651 70.2053 23.6883 69.6907C22.7257 69.1761 21.7906 68.6156 20.883 68.0092C19.9755 67.4028 19.0998 66.7534 18.256 66.061C17.4123 65.3685 16.6045 64.6363 15.8326 63.8645C15.0608 63.0927 14.3287 62.2849 13.6363 61.4411C12.9438 60.5973 12.2943 59.7216 11.6879 58.8141C11.0815 57.9065 10.521 56.9714 10.0065 56.0089C9.4919 55.0463 9.0258 54.0607 8.60807 53.0522C8.19038 52.0439 7.8231 51.0174 7.50626 49.9729C7.18938 48.9283 6.92447 47.8708 6.71152 46.8001C6.49857 45.7296 6.33864 44.6512 6.23167 43.565C6.12467 42.4788 6.07117 41.3899 6.07117 40.2983C6.07117 39.2068 6.12467 38.1179 6.23164 37.0316C6.33861 35.9454 6.49857 34.8669 6.71152 33.7963C6.92447 32.7258 7.18938 31.6683 7.50626 30.6238C7.8231 29.5793 8.19038 28.5527 8.60807 27.5442C9.0258 26.5358 9.49195 25.5503 10.0065 24.5877C10.521 23.625 11.0815 22.6899 11.6879 21.7823C12.2943 20.8748 12.9438 19.9992 13.6363 19.1554C14.3287 18.3116 15.0608 17.5038 15.8326 16.732C16.6045 15.9602 17.4123 15.228 18.256 14.5356C19.0998 13.8431 19.9755 13.1937 20.883 12.5872C21.7906 11.9808 22.7257 11.4203 23.6883 10.9057C24.651 10.3911 25.6366 9.92498 26.645 9.50729C27.6534 9.08965 28.6799 8.7224 29.7244 8.40548C30.7689 8.08863 31.8265 7.82378 32.897 7.61087C33.9676 7.39795 35.0461 7.238 36.1323 7.13106C37.2186 7.02406 38.3075 6.97056 39.399 6.97049C40.4905 6.97056 41.5794 7.02399 42.6656 7.13093C43.7519 7.238 44.8303 7.39795 45.9008 7.6108C46.9714 7.82378 48.0289 8.0887 49.0734 8.40554C50.118 8.72239 51.1444 9.08966 52.1529 9.50736C53.1613 9.92512 54.1469 10.3913 55.1095 10.9058C56.0721 11.4203 57.0073 11.9808 57.9148 12.5872C58.8224 13.1937 59.6981 13.8431 60.5418 14.5356C61.3856 15.228 62.1934 15.9602 62.9652 16.732C63.7371 17.5038 64.4692 18.3116 65.1617 19.1554C65.8541 19.9992 66.5035 20.8748 67.1099 21.7823C67.7164 22.6899 68.2769 23.625 68.7914 24.5877C69.306 25.5503 69.7721 26.5359 70.1898 27.5443C70.6075 28.5527 70.9748 29.5793 71.2917 30.6238C71.6085 31.6683 71.8734 32.7258 72.0863 33.7963C72.2993 34.8669 72.4593 35.9454 72.5663 37.0316C72.6733 38.1179 72.7268 39.2068 72.7268 40.2983Z" fill="#F4976E"/>
<path d="M54.6983 57.2805C54.9885 56.6183 55.0783 55.93 54.9677 55.2156C54.5941 54.3164 53.9916 53.6132 53.1602 53.1059C52.3096 52.5051 51.404 52.0038 50.4432 51.6021C49.1072 50.9288 48.4448 50.0422 48.849 48.6058C48.9949 48.1345 49.0623 47.8876 48.6581 47.753C47.9546 47.3741 47.4306 46.8242 47.0863 46.1034C46.8779 45.5561 46.7432 44.9912 46.6822 44.4088C46.4409 42.6175 46.3062 40.8183 46.278 39.0111C46.278 37.4961 46.2107 35.9587 46.278 34.4325C46.3047 33.9532 46.3646 33.4781 46.4577 33.0072C46.5434 31.9759 46.8615 31.022 47.412 30.1456C48.7367 30.1456 50.0615 30.1457 51.3751 30.011C51.6233 30.0034 51.7805 29.8799 51.8466 29.6406C52.0599 27.9798 52.0936 26.274 52.2733 24.6132C52.5203 22.4698 52.756 19.799 54.0134 17.9586C54.238 17.5995 54.2604 17.0832 53.6991 17.0608C51.9118 16.9279 50.123 16.9017 48.3326 16.9823C48.183 16.9801 48.0509 17.0269 47.936 17.1226C47.8211 17.2183 47.7512 17.3399 47.7263 17.4873C47.5018 18.4973 47.2772 19.5185 47.1425 20.5509C46.7496 20.5509 46.3566 20.5509 45.9637 20.5509C46.0295 19.6036 46.1567 18.6647 46.3454 17.7341C46.3903 17.5671 46.3529 17.4213 46.2331 17.2965C46.1419 17.1795 46.0222 17.1234 45.8739 17.1281C44.2123 17.1281 42.5058 17.2403 40.8891 17.1281C40.7925 17.1134 40.7035 17.1329 40.6219 17.1865C40.5403 17.2402 40.4872 17.3142 40.4625 17.4086C40.4247 17.4747 40.406 17.5458 40.4063 17.6219C40.5077 18.643 40.5077 19.6643 40.4063 20.6854H39.2836C39.1505 19.6677 39.1131 18.6465 39.1714 17.6219C39.1714 17.5433 39.1714 17.0832 38.6774 17.1506C37.027 17.3413 35.3654 17.1506 33.7038 17.2965C33.12 17.2965 33.1986 17.7341 33.2435 17.9136C33.4552 18.8389 33.6049 19.774 33.6926 20.7191C33.2996 20.7191 32.9067 20.7191 32.5699 20.7191C32.4239 19.6867 32.1657 18.6767 31.9188 17.6668C31.8957 17.5145 31.8235 17.3908 31.7023 17.2955C31.581 17.2003 31.4436 17.1595 31.29 17.173C29.501 17.1337 27.7159 17.201 25.9348 17.375C25.712 17.3981 25.5659 17.516 25.4966 17.729C25.4274 17.9419 25.4762 18.1232 25.6429 18.2728C26.9003 20.0459 27.1922 22.5932 27.4953 24.6581C27.7536 26.4087 27.8097 28.1706 28.0791 29.91C28.1464 30.1475 28.3036 30.2672 28.5507 30.2691C29.8754 30.3476 31.189 30.3364 32.5138 30.2691C33.0559 31.0635 33.3777 31.9388 33.4793 32.8951C33.6045 33.3933 33.6906 33.8983 33.7375 34.41C33.8498 35.9699 33.8498 37.5409 33.8386 39.112C33.8273 40.6831 33.76 42.5796 33.5803 44.2966C33.5261 44.9181 33.4101 45.5278 33.2323 46.1258C32.9149 46.9043 32.3872 47.4954 31.6493 47.8989C31.2451 48.0447 31.3349 48.4487 31.4809 48.763C31.5841 49.0378 31.6316 49.3219 31.6232 49.6153C31.6149 49.9087 31.5515 50.1896 31.4329 50.4581C31.3143 50.7267 31.1494 50.9628 30.9382 51.1666C30.7269 51.3704 30.4849 51.5268 30.2122 51.6358C29.187 52.1315 28.2065 52.7039 27.2708 53.3528C26.5416 53.8431 25.984 54.4827 25.598 55.2718C25.4409 55.682 25.3923 56.1047 25.452 56.5399C25.5344 56.8953 25.6504 57.2395 25.8 57.5723C24.9794 57.525 24.2534 57.7644 23.622 58.2905C23.1552 58.7547 22.8554 59.3091 22.7227 59.9537C22.5901 60.5984 22.6466 61.226 22.8923 61.8366C23.4087 63.4189 26.0134 63.5985 27.383 63.7331C36.1007 64.1301 44.8128 64.0328 53.5194 63.4413C54.9565 63.273 57.3029 63.0261 57.9204 61.4438C58.0176 61.1969 58.0817 60.9417 58.1126 60.6781C58.1435 60.4146 58.1401 60.1515 58.1027 59.8889C58.0652 59.6262 57.9948 59.3727 57.8914 59.1284C57.788 58.884 57.6551 58.6569 57.4927 58.4471C57.3303 58.2372 57.1437 58.0515 56.9331 57.8901C56.7224 57.7286 56.4946 57.5969 56.2497 57.4946C56.0047 57.3923 55.7508 57.3231 55.4878 57.2868C55.2249 57.2505 54.9617 57.2484 54.6983 57.2805Z" fill="#F9F6F1"/>
</svg>
